<?xml version="1.0" encoding="UTF-8"?>
<svg width="100px" height="100px" viewBox="0 0 100 100" version="1.1" xmlns="http://www.w3.org/2000/svg" xmlns:xlink="http://www.w3.org/1999/xlink">
    <!-- Generator: Sketch 53.1 (72631) - https://sketchapp.com -->
    <title>Instant Cashback</title>
    <desc>Created with Sketch.</desc>
    <defs>
        <linearGradient x1="50%" y1="0%" x2="50%" y2="100%" id="linearGradient-1">
            <stop stop-color="#64C0C6" offset="0%"></stop>
            <stop stop-color="#6680C1" offset="100%"></stop>
        </linearGradient>
    </defs>
    <g id="Instant-Cashback" stroke="none" stroke-width="1" fill="none" fill-rule="evenodd">
        <g id="Group-3" transform="translate(16.000000, 29.000000)">
            <path d="M2,11 C2,10.9200715 5.09869974,10.5534048 11.2960992,9.9 C17.4934987,9.24659522 29.9420155,9.24659522 48.6416496,9.9 L60.3168183,9.9 L66,24.8666297 L66,37.7829338 L60.3168183,42.9 L29.7539698,40.5976676 C20.5840574,37.1822189 14.4314338,35.4744946 11.2960992,35.4744946 C8.16076461,35.4744946 5.06206487,33.3717762 2,29.1663394 L2,11 Z" id="Path" fill="url(#linearGradient-1)"></path>
            <rect id="Rectangle" stroke="#1E2C3D" stroke-width="2.7" x="1.35" y="9.05" width="64.4" height="32.5" rx="8.8"></rect>
            <circle id="Oval" stroke="#1E2C3D" stroke-width="3.3" fill="#202D3E" cx="33" cy="25.3" r="11"></circle>
            <text id="Rp" font-family="OpenSans-Bold, Open Sans" font-size="11" font-weight="bold" fill="#FFFFFF">
                <tspan x="26.4" y="28.5">Rp</tspan>
            </text>
            <circle id="Oval" fill="#202D3E" cx="60.5" cy="11" r="11"></circle>
            <path d="M60.5,4.95 L60.5,11" id="Line" stroke="#FFFFFF" stroke-width="1.1" stroke-linecap="round" stroke-linejoin="round"></path>
            <path d="M63.9397111,9.62827583 L63.9397111,15.6782758" id="Line-Copy" stroke="#FFFFFF" stroke-width="1.1" stroke-linecap="round" stroke-linejoin="round" transform="translate(63.939711, 12.378276) rotate(117.000000) translate(-63.939711, -12.378276) "></path>
        </g>
        <rect id="Rectangle" fill="#FFFFFF" x="80" y="57" width="4" height="7" rx="2"></rect>
    </g>
</svg>